<svg width="274" height="274" viewBox="0 0 274 274" fill="none" xmlns="http://www.w3.org/2000/svg">
<path d="M0 136.8C0 212.353 61.2474 273.6 136.8 273.6C212.353 273.6 273.6 212.353 273.6 136.8C273.6 61.2474 212.353 0 136.8 0C61.2474 0 0 61.2474 0 136.8Z" fill="white"/>
<path d="M146.72 0H126.88C105.622 0 94.9926 0 86.1194 1.54863C42.9179 9.0885 9.0885 42.9179 1.54863 86.1194C0 94.9926 0 105.622 0 126.88V146.72C0 167.978 0 178.607 1.54863 187.481C9.0885 230.682 42.9179 264.512 86.1194 272.051C94.9926 273.6 105.622 273.6 126.88 273.6H146.72C167.978 273.6 178.607 273.6 187.481 272.051C230.682 264.512 264.512 230.682 272.051 187.481C273.6 178.607 273.6 167.978 273.6 146.72V126.88C273.6 105.622 273.6 94.9926 272.051 86.1194C264.512 42.9179 230.682 9.0885 187.481 1.54863C178.607 0 167.978 0 146.72 0Z" fill="white"/>
<mask id="mask0_498_502" style="mask-type:luminance" maskUnits="userSpaceOnUse" x="66" y="95" width="142" height="107">
<path d="M207.632 95.152H66.5757V201.552H207.632V95.152Z" fill="white"/>
</mask>
<g mask="url(#mask0_498_502)">
<path d="M109.329 149.329C110.398 149.811 111.469 150.777 112.54 152.226C114.687 155.064 115.761 158.838 115.761 163.55C115.761 169.283 113.267 173.516 108.284 176.252C105.769 177.589 103.252 178.365 100.732 178.579H72.3647V126.348H96.5517C98.5325 126.348 100.651 126.78 102.907 127.64C107.353 129.35 110.189 132.321 111.419 136.551C112.331 139.61 112.25 142.667 111.182 145.719C110.643 147.22 110.025 148.424 109.329 149.329ZM84.9047 136.076V147.723H96.0767C97.6775 147.723 99.0692 147.163 100.247 146.042C101.373 144.916 101.938 143.548 101.938 141.938C101.938 140.28 101.373 138.886 100.247 137.758C99.0692 136.637 97.6775 136.076 96.0767 136.076H84.9047ZM105.957 163.151C105.957 161.543 105.391 160.149 104.266 158.971C103.145 157.85 101.779 157.29 100.171 157.29H84.9047V168.937H100.171C101.779 168.937 103.145 168.374 104.266 167.246C105.391 166.125 105.957 164.761 105.957 163.151Z" fill="#0A817F"/>
<path d="M150.309 137.036H161.557V178.579H150.309V173.915C148.01 176.917 144.528 178.418 139.868 178.418C134.187 178.475 129.309 176.494 125.238 172.471C121.165 168.457 119.104 163.583 119.054 157.85C119.001 152.169 120.985 147.293 125.001 143.22C129.014 139.154 133.888 137.093 139.621 137.036C144.338 137.036 147.9 138.563 150.309 141.615V137.036ZM146.936 164.918C148.917 162.937 149.91 160.527 149.91 157.689C149.91 154.796 148.893 152.385 146.86 150.459C144.82 148.421 142.436 147.455 139.707 147.562C136.861 147.562 134.453 148.554 132.477 150.535C130.494 152.518 129.504 154.929 129.504 157.765C129.504 160.553 130.52 162.966 132.553 165.004C134.534 166.987 136.945 167.977 139.783 167.977C142.675 167.87 145.06 166.851 146.936 164.918Z" fill="#0A817F"/>
<path d="M203.505 137.121L187.194 180.432C185.427 184.711 182.615 188.112 178.758 190.635C174.901 193.147 170.695 194.351 166.142 194.245V182.997C167.799 183.054 169.46 182.704 171.12 181.952C173.476 180.88 175.245 179.192 176.43 176.888L178.672 170.704L164.536 137.121H176.905L184.382 155.2L191.051 137.121H203.505Z" fill="#0A817F"/>
</g>
<mask id="mask1_498_502" style="mask-type:luminance" maskUnits="userSpaceOnUse" x="40" y="41" width="115" height="91">
<path d="M154.128 41.04H40.4316V131.024H154.128V41.04Z" fill="white"/>
</mask>
<g mask="url(#mask1_498_502)">
<mask id="mask2_498_502" style="mask-type:luminance" maskUnits="userSpaceOnUse" x="40" y="41" width="114" height="90">
<path d="M40.7476 41.04H153.52V130.634H40.7476V41.04Z" fill="white"/>
</mask>
<g mask="url(#mask2_498_502)">
<path fill-rule="evenodd" clip-rule="evenodd" d="M65.7419 53.1834C119.507 52.9411 148.373 78.0449 150.843 130.007C150.874 130.661 151.829 130.696 151.919 130.05C154.318 113.071 153.854 97.5982 149.544 84.1486C135.322 39.7551 81.0702 33.9316 42.5762 47.9821C40.6572 48.6827 40.2701 51.1551 41.8661 52.4329C71.8908 76.4417 67.8034 141.968 140.887 113.57C129.473 78.0971 106.072 56.1165 65.7419 53.1834Z" fill="#0A817F"/>
</g>
</g>
<mask id="mask3_498_502" style="mask-type:luminance" maskUnits="userSpaceOnUse" x="34" y="116" width="217" height="135">
<path d="M34.96 116.432H250.8V250.8H34.96V116.432Z" fill="white"/>
</mask>
<g mask="url(#mask3_498_502)">
<mask id="mask4_498_502" style="mask-type:luminance" maskUnits="userSpaceOnUse" x="35" y="114" width="239" height="165">
<path d="M59.1661 114.185L273.113 155.857L249.313 278.048L35.3662 236.377L59.1661 114.185Z" fill="white"/>
</mask>
<g mask="url(#mask4_498_502)">
<mask id="mask5_498_502" style="mask-type:luminance" maskUnits="userSpaceOnUse" x="34" y="116" width="217" height="135">
<path d="M250.8 116.432H34.96V250.8H250.8V116.432Z" fill="white"/>
</mask>
<g mask="url(#mask5_498_502)">
<mask id="mask6_498_502" style="mask-type:luminance" maskUnits="userSpaceOnUse" x="35" y="153" width="216" height="84">
<path d="M35.4941 153.52H250.8V236.816H35.4941V153.52Z" fill="white"/>
</mask>
<g mask="url(#mask6_498_502)">
<mask id="mask7_498_502" style="mask-type:luminance" maskUnits="userSpaceOnUse" x="35" y="114" width="239" height="165">
<path d="M59.1656 114.185L273.113 155.857L249.313 278.048L35.3657 236.377L59.1656 114.185Z" fill="white"/>
</mask>
<g mask="url(#mask7_498_502)">
<mask id="mask8_498_502" style="mask-type:luminance" maskUnits="userSpaceOnUse" x="35" y="114" width="239" height="165">
<path d="M35.3564 236.427L249.304 278.098L273.103 155.907L59.1563 114.235L35.3564 236.427Z" fill="white"/>
</mask>
<g mask="url(#mask8_498_502)">
<path d="M265.446 158.795C263.77 158.6 262.088 158.431 260.428 158.291L257.257 158.044L253.612 157.809L252.975 157.686C251.334 157.576 249.684 157.519 248.033 157.46L246.404 157.434L242.25 157.363L240.269 157.372C238.797 157.351 237.315 157.377 235.856 157.41L235.678 157.375C233.857 157.389 232.023 157.455 230.185 157.546L229.703 157.451C227.869 157.517 226.026 157.633 224.178 157.774C222.333 157.916 220.652 158.009 218.82 158.206C216.987 158.403 215.951 158.439 214.491 158.631C213.028 158.821 211.795 158.923 210.339 159.087C208.883 159.253 207.644 159.379 206.468 159.6C204.763 159.821 203.077 160.073 201.388 160.35C199.699 160.628 197.685 160.949 195.925 161.317C194.163 161.688 192.698 161.904 191.08 162.22C189.026 162.611 186.96 163.053 184.922 163.5C182.882 163.949 181.31 164.3 179.536 164.747C177.759 165.193 175.964 165.606 174.185 166.079C172.406 166.549 170.655 167 168.896 167.502C167.136 168.003 165.468 168.442 163.754 168.979C156.819 171.005 150.045 173.273 143.502 175.586C141.859 176.163 140.246 176.728 138.662 177.282C119.904 184.656 101.816 193.418 84.4002 203.561L80.9565 205.53C74.1735 209.484 68.0175 213.322 62.6025 216.885L59.9401 218.635C54.7768 222.112 50.3451 225.233 46.7185 227.876L43.859 229.957C41.0778 232.054 38.9641 233.7 37.6388 234.811L36.3326 235.826L35.5488 236.462L39.5697 215.828C81.4267 187.684 174.622 136.619 272.377 159.512L269.8 159.194C268.287 159.111 266.945 158.954 265.446 158.795Z" fill="white"/>
</g>
</g>
</g>
</g>
</g>
</g>
<mask id="mask9_498_502" style="mask-type:luminance" maskUnits="userSpaceOnUse" x="185" y="91" width="60" height="48">
<path d="M185.744 91.504H244.67V138.32H185.744V91.504Z" fill="white"/>
</mask>
<g mask="url(#mask9_498_502)">
<path fill-rule="evenodd" clip-rule="evenodd" d="M231.553 97.9901C203.53 97.8643 188.487 110.948 187.2 138.03C187.185 138.37 186.687 138.389 186.639 138.052C185.39 129.205 185.63 121.139 187.877 114.128C195.289 90.9934 223.563 87.9581 243.625 95.2803C244.627 95.6436 244.829 96.9333 243.998 97.6006C228.349 110.112 230.479 144.265 192.389 129.464C198.338 110.974 210.534 99.5196 231.553 97.9901Z" fill="#0A817F"/>
</g>
<mask id="mask10_498_502" style="mask-type:luminance" maskUnits="userSpaceOnUse" x="42" y="193" width="194" height="16">
<path d="M235.6 193.648H42.2559V208.848H235.6V193.648Z" fill="white"/>
</mask>
<g mask="url(#mask10_498_502)">
<path d="M44.5112 196.369H47.8267C48.6865 196.369 49.4465 196.545 50.1067 196.892C50.7646 197.241 51.2752 197.723 51.6362 198.336C52.002 198.951 52.1872 199.654 52.1872 200.445C52.1872 201.238 52.002 201.943 51.6362 202.563C51.2752 203.178 50.7646 203.66 50.1067 204.007C49.4465 204.349 48.6865 204.52 47.8267 204.52H44.5112V196.369ZM47.7792 203.779C48.4941 203.779 49.1187 203.637 49.6507 203.352C50.1875 203.067 50.6031 202.675 50.8952 202.174C51.1921 201.675 51.3417 201.098 51.3417 200.445C51.3417 199.794 51.1921 199.217 50.8952 198.716C50.6031 198.217 50.1875 197.827 49.6507 197.547C49.1187 197.262 48.4941 197.12 47.7792 197.12H45.3662V203.779H47.7792Z" fill="#0A817F"/>
<path d="M58.1582 196.369H59.0132V204.52H58.1582V196.369Z" fill="#0A817F"/>
<path d="M71.4468 200.445H72.2733V203.551C71.8933 203.888 71.4397 204.145 70.9148 204.321C70.3947 204.499 69.8508 204.587 69.2808 204.587C68.4638 204.587 67.7276 204.411 67.0768 204.055C66.4237 203.701 65.9107 203.207 65.5378 202.573C65.1697 201.941 64.9868 201.231 64.9868 200.445C64.9868 199.666 65.1697 198.96 65.5378 198.326C65.9107 197.694 66.4237 197.2 67.0768 196.844C67.7276 196.483 68.4662 196.303 69.2903 196.303C69.9102 196.303 70.4802 196.405 71.0003 196.607C71.5181 196.804 71.9551 197.096 72.3113 197.481L71.7793 198.022C71.1333 197.39 70.3163 197.072 69.3283 197.072C68.6681 197.072 68.0743 197.219 67.5423 197.509C67.0103 197.801 66.5923 198.207 66.2883 198.725C65.9843 199.238 65.8323 199.813 65.8323 200.445C65.8323 201.086 65.9843 201.661 66.2883 202.174C66.5923 202.682 67.0056 203.083 67.5328 203.38C68.0577 203.672 68.6491 203.817 69.3093 203.817C70.1501 203.817 70.8626 203.608 71.4468 203.19V200.445Z" fill="#0A817F"/>
<path d="M78.7393 196.369H79.5943V204.52H78.7393V196.369Z" fill="#0A817F"/>
<path d="M87.8668 197.12H85.0073V196.369H91.5908V197.12H88.7313V204.52H87.8668V197.12Z" fill="#0A817F"/>
<path d="M101.699 202.345H97.1676L96.1891 204.52H95.2866L99.0106 196.369H99.8656L103.59 204.52H102.678L101.699 202.345ZM101.386 201.642L99.4381 197.272L97.4811 201.642H101.386Z" fill="#0A817F"/>
<path d="M108.977 196.369H109.832V203.779H114.401V204.52H108.977V196.369Z" fill="#0A817F"/>
<path d="M132.709 203.779V204.52H126.952V196.369H132.538V197.12H127.807V200.017H132.025V200.749H127.807V203.779H132.709Z" fill="#0A817F"/>
<path d="M142.259 204.587C141.454 204.587 140.725 204.411 140.074 204.055C139.428 203.701 138.92 203.207 138.554 202.573C138.186 201.941 138.003 201.231 138.003 200.445C138.003 199.666 138.186 198.96 138.554 198.326C138.92 197.694 139.431 197.2 140.084 196.844C140.735 196.483 141.464 196.303 142.269 196.303C142.877 196.303 143.437 196.405 143.95 196.607C144.463 196.811 144.896 197.105 145.252 197.49L144.701 198.041C144.067 197.395 143.266 197.072 142.297 197.072C141.651 197.072 141.062 197.222 140.53 197.519C140.003 197.811 139.592 198.212 139.295 198.725C138.996 199.238 138.849 199.813 138.849 200.445C138.849 201.086 138.996 201.661 139.295 202.174C139.592 202.682 140.003 203.083 140.53 203.38C141.062 203.672 141.651 203.817 142.297 203.817C143.271 203.817 144.074 203.494 144.701 202.848L145.252 203.39C144.896 203.777 144.459 204.074 143.941 204.283C143.428 204.487 142.867 204.587 142.259 204.587Z" fill="#0A817F"/>
<path d="M154.515 204.587C153.703 204.587 152.969 204.406 152.311 204.045C151.658 203.684 151.148 203.19 150.782 202.563C150.414 201.936 150.231 201.231 150.231 200.445C150.231 199.666 150.414 198.963 150.782 198.336C151.148 197.704 151.658 197.205 152.311 196.844C152.969 196.483 153.703 196.303 154.515 196.303C155.318 196.303 156.045 196.483 156.691 196.844C157.337 197.2 157.845 197.694 158.22 198.326C158.593 198.96 158.781 199.666 158.781 200.445C158.781 201.231 158.593 201.941 158.22 202.573C157.845 203.207 157.337 203.701 156.691 204.055C156.045 204.411 155.318 204.587 154.515 204.587ZM154.515 203.817C155.154 203.817 155.734 203.675 156.254 203.39C156.772 203.1 157.178 202.696 157.47 202.183C157.767 201.665 157.916 201.086 157.916 200.445C157.916 199.813 157.767 199.238 157.47 198.725C157.178 198.207 156.772 197.801 156.254 197.509C155.734 197.219 155.154 197.072 154.515 197.072C153.869 197.072 153.283 197.219 152.758 197.509C152.231 197.801 151.82 198.207 151.523 198.725C151.224 199.238 151.076 199.813 151.076 200.445C151.076 201.086 151.224 201.665 151.523 202.183C151.82 202.696 152.231 203.1 152.758 203.39C153.283 203.675 153.869 203.817 154.515 203.817Z" fill="#0A817F"/>
<path d="M166.993 204.587C166.39 204.587 165.81 204.492 165.255 204.302C164.697 204.107 164.269 203.85 163.972 203.532L164.305 202.867C164.602 203.166 164.993 203.406 165.483 203.589C165.97 203.767 166.473 203.855 166.993 203.855C167.72 203.855 168.266 203.722 168.627 203.456C168.993 203.19 169.178 202.843 169.178 202.411C169.178 202.088 169.078 201.832 168.884 201.642C168.687 201.447 168.442 201.295 168.152 201.186C167.867 201.079 167.468 200.965 166.955 200.844C166.347 200.687 165.858 200.537 165.492 200.397C165.124 200.252 164.811 200.034 164.552 199.742C164.29 199.445 164.162 199.043 164.162 198.535C164.162 198.124 164.269 197.751 164.485 197.414C164.706 197.079 165.041 196.811 165.492 196.607C165.941 196.405 166.499 196.303 167.164 196.303C167.632 196.303 168.088 196.369 168.532 196.502C168.981 196.63 169.368 196.804 169.691 197.025L169.406 197.709C169.064 197.488 168.696 197.319 168.304 197.205C167.917 197.091 167.537 197.034 167.164 197.034C166.454 197.034 165.92 197.174 165.559 197.452C165.198 197.725 165.017 198.079 165.017 198.516C165.017 198.839 165.115 199.103 165.312 199.305C165.506 199.502 165.753 199.654 166.053 199.761C166.357 199.863 166.758 199.974 167.259 200.093C167.86 200.245 168.345 200.395 168.713 200.54C169.078 200.68 169.39 200.896 169.644 201.186C169.903 201.478 170.033 201.87 170.033 202.364C170.033 202.777 169.922 203.152 169.701 203.494C169.477 203.831 169.135 204.097 168.675 204.292C168.219 204.489 167.658 204.587 166.993 204.587Z" fill="#0A817F"/>
<path d="M178.562 201.708V204.52H177.707V201.708L174.448 196.369H175.37L178.163 200.948L180.956 196.369H181.82L178.562 201.708Z" fill="#0A817F"/>
<path d="M189.261 204.587C188.658 204.587 188.078 204.492 187.523 204.302C186.965 204.107 186.537 203.85 186.24 203.532L186.573 202.867C186.87 203.166 187.261 203.406 187.751 203.589C188.238 203.767 188.741 203.855 189.261 203.855C189.988 203.855 190.534 203.722 190.895 203.456C191.261 203.19 191.446 202.843 191.446 202.411C191.446 202.088 191.346 201.832 191.152 201.642C190.955 201.447 190.71 201.295 190.42 201.186C190.135 201.079 189.736 200.965 189.223 200.844C188.615 200.687 188.126 200.537 187.76 200.397C187.392 200.252 187.079 200.034 186.82 199.742C186.558 199.445 186.43 199.043 186.43 198.535C186.43 198.124 186.537 197.751 186.753 197.414C186.974 197.079 187.309 196.811 187.76 196.607C188.209 196.405 188.767 196.303 189.432 196.303C189.9 196.303 190.356 196.369 190.8 196.502C191.249 196.63 191.636 196.804 191.959 197.025L191.674 197.709C191.332 197.488 190.964 197.319 190.572 197.205C190.185 197.091 189.805 197.034 189.432 197.034C188.722 197.034 188.188 197.174 187.827 197.452C187.466 197.725 187.285 198.079 187.285 198.516C187.285 198.839 187.383 199.103 187.58 199.305C187.774 199.502 188.021 199.654 188.321 199.761C188.625 199.863 189.026 199.974 189.527 200.093C190.128 200.245 190.613 200.395 190.981 200.54C191.346 200.68 191.658 200.896 191.912 201.186C192.171 201.478 192.301 201.87 192.301 202.364C192.301 202.777 192.19 203.152 191.969 203.494C191.745 203.831 191.403 204.097 190.943 204.292C190.487 204.489 189.926 204.587 189.261 204.587Z" fill="#0A817F"/>
<path d="M199.672 197.12H196.812V196.369H203.396V197.12H200.536V204.52H199.672V197.12Z" fill="#0A817F"/>
<path d="M214.567 203.779V204.52H208.81V196.369H214.396V197.12H209.665V200.017H213.883V200.749H209.665V203.779H214.567Z" fill="#0A817F"/>
<path d="M229.086 196.369V204.52H228.259V198.003L225.058 203.485H224.659L221.457 198.041V204.52H220.631V196.369H221.334L224.877 202.411L228.383 196.369H229.086Z" fill="#0A817F"/>
</g>
</svg>
